<?xml version="1.0" encoding="UTF-8" standalone="no"?>
<svg
   xml:space="preserve"
   width="800"
   height="800"
   viewBox="0 0 512 512"
   version="1.1"
   id="svg48"
   sodipodi:docname="archives.svg"
   inkscape:version="1.2.2 (b0a8486541, 2022-12-01)"
   xmlns:inkscape="http://www.inkscape.org/namespaces/inkscape"
   xmlns:sodipodi="http://sodipodi.sourceforge.net/DTD/sodipodi-0.dtd"
   xmlns="http://www.w3.org/2000/svg"
   xmlns:svg="http://www.w3.org/2000/svg"><defs
   id="defs52" /><sodipodi:namedview
   id="namedview50"
   pagecolor="#ffffff"
   bordercolor="#000000"
   borderopacity="0.25"
   inkscape:showpageshadow="2"
   inkscape:pageopacity="0.0"
   inkscape:pagecheckerboard="true"
   inkscape:deskcolor="#d1d1d1"
   showgrid="false"
   inkscape:zoom="1.0475"
   inkscape:cx="400"
   inkscape:cy="400"
   inkscape:window-width="1920"
   inkscape:window-height="1008"
   inkscape:window-x="1920"
   inkscape:window-y="0"
   inkscape:window-maximized="1"
   inkscape:current-layer="svg48"><inkscape:grid
     type="xygrid"
     id="grid227" /></sodipodi:namedview>
  <path
   d="M467 0H178c-9 0-17 7-17 17v50h-50c-9 0-16 7-16 16v51H45c-10 0-17 7-17 16v345c0 10 7 17 17 17h289c9 0 17-7 17-17v-50h50c9 0 16-7 16-16v-51h50c10 0 17-7 17-16V17c0-10-7-17-17-17zM317 479H61V167h256v312zm67-67h-33V150c0-9-8-16-17-16H128v-34h256v312zm67-67h-34V83c0-9-7-16-16-16H195V33h256v312z"
   id="path44" />
  <path
   d="M267 211H111a17 17 0 0 0 0 34h156a17 17 0 0 0 0-34zm0 67h-42a17 17 0 0 0 0 34h42a17 17 0 0 0 0-34zm-108 0h-48a17 17 0 0 0 0 34h48a17 17 0 0 0 0-34zm108 67H111a17 17 0 0 0 0 33h156a17 17 0 0 0 0-33zm0 67h-78a17 17 0 0 0 0 33h78a17 17 0 0 0 0-33z"
   id="path46" />
<path
   style="fill:#ffffff;stroke-width:0.954654"
   d="M 95.465394,505.01193 V 261.57518 H 294.98807 494.51074 V 505.01193 748.44869 H 294.98807 95.465394 Z M 422.43437,693.66367 c 9.58028,-4.53679 15.18416,-13.61114 15.09989,-24.45126 -0.079,-10.17086 -4.60509,-18.09542 -13.12658,-22.98318 l -4.83727,-2.77456 -62.79916,-0.009 c -69.41119,-0.01 -65.91165,-0.30997 -73.20273,6.27708 -5.41198,4.88938 -7.8642,10.04605 -8.41304,17.69127 -0.83369,11.61348 4.37962,21.11704 14.29436,26.05776 l 4.95846,2.4709 61.62639,-0.01 61.62641,-0.01 4.77327,-2.2604 z m 1.97331,-105.52536 c 8.52149,-4.88776 13.04752,-12.81231 13.12658,-22.98318 0.0843,-10.84011 -5.51961,-19.91447 -15.09989,-24.45125 l -4.77327,-2.26041 -122.67303,0.0116 c -118.29769,0.0113 -122.81495,0.0761 -126.65209,1.81829 -2.18848,0.99365 -5.71394,3.59432 -7.83436,5.77927 -12.57132,12.95389 -9.02699,34.51105 7.04015,42.81918 3.80222,1.96608 4.3512,1.9747 127.92362,2.00779 l 124.10502,0.0332 z M 260.25439,485.2485 c 6.2668,-3.35258 9.63391,-6.68412 12.33477,-12.20449 5.05958,-10.34139 2.63626,-24.24565 -5.50805,-31.60355 -8.0004,-7.22789 -6.42081,-7.0296 -56.10259,-7.04263 l -44.39141,-0.0116 -4.77327,2.2604 c -9.54165,4.5185 -15.14805,13.56807 -15.14805,24.45126 0,10.90555 4.99326,18.87976 14.9319,23.84616 l 5.91261,2.95456 44.40714,-0.27386 c 43.67822,-0.26938 44.47165,-0.30839 48.33695,-2.37621 z m 168.99091,-0.009 c 19.64694,-10.50846 19.65538,-38.84809 0.0144,-48.45751 l -5.05863,-2.47496 -40.5015,0.2688 c -37.83253,0.25109 -40.74706,0.39065 -44.2279,2.11773 -16.42209,8.14807 -19.89629,30.02283 -6.84168,43.07746 8.06305,8.06303 7.45878,7.97461 53.05018,7.76325 38.87787,-0.18024 39.69189,-0.22311 43.56511,-2.29477 z m 0.15927,-104.8944 c 19.51412,-9.7243 19.42131,-37.92832 -0.15927,-48.40129 l -3.94697,-2.11127 -128.76288,-0.25222 -128.76288,-0.25221 -4.88867,2.24759 c -6.9598,3.19981 -10.61215,6.62835 -13.62833,12.79321 -6.56621,13.42086 -0.87711,29.80548 12.55827,36.16786 l 4.77327,2.26041 128.92951,0.01 128.9295,0.01 4.95845,-2.4709 z"
   id="path298"
   transform="scale(0.64)" /><path
   style="fill:#ffffff;stroke-width:0.954654"
   d="m 548.69587,435.56086 c -0.24189,-203.4315 -0.28671,-207.95557 -2.0961,-211.60229 -2.35762,-4.75169 -7.1163,-9.51038 -12.25758,-12.25759 l -4.03193,-2.15444 -164.91647,-0.24931 -164.91646,-0.24932 V 182.80558 156.56325 H 400 599.52267 V 400 643.43675 h -25.28981 -25.28982 z"
   id="path300"
   transform="scale(0.64)" /><path
   style="fill:#ffffff;stroke-width:0.954654"
   d="m 652.02864,331.91231 c 0,-233.127293 0.73866,-211.93283 -7.67958,-220.35107 -8.11989,-8.11989 6.38709,-7.50396 -176.7419,-7.50396 H 305.48926 V 77.804296 51.551313 H 505.01193 704.53461 V 294.98807 538.42482 h -26.25299 -26.25298 z"
   id="path302"
   transform="scale(0.64)" /></svg>
