<svg xmlns="http://www.w3.org/2000/svg" xml:space="preserve" width="800" height="800" fill="#fff" stroke="#000" stroke-width="35" viewBox="-23.3 -23.3 629.5 629.5">
  <path d="M526.8 235.8c-6.3-15.1-11.8-30.6-18.7-45.5-6-13-16-20.7-27.3-27.3-6.5-3.8-13.7-6.2-20.6-8.9a5 5 0 0 1-3-5.5c1.2-5.6 2.4-11.6 3.2-17.6.5-3.7-.4-7.5-.4-11.3-.1-5 0-10.2.1-15.3.4-8.8-1.9-17.1-4-25.6-1.4-5.4-.4-11.5-2-16.8-1.6-5.5.4-12.2-5-16.6V45c.8-8.6-5.6-14.6-8.5-21.7a30 30 0 0 0-15.8-17.6c-3-1.3-5.5-3-8.5-5-1.9-1.2-4-.5-4.8 1.7-2.5 7.3-5 14-6.6 20.9-1.5 6.8-5 13-4 20.9.8 5.6-2.7 11.8-3.9 17.8-.6 3.1-1 6.4-1.3 9.6-.2 2.2-1.6 2.7-3 1-3.4-4.3-6.3-8.6-10.4-11-7-4.4-12.2-10.8-19-14.8-10.7-6.4-21.5-13-33.1-17-11.6-4-24-5.4-36.3-7-3.2-.4-6.6.8-10.5 2-2.1.7-3 2.7-2 4.7 3.6 7 6.8 13.4 10.5 19.6 6 10.3 12.2 20.4 18.8 30.4 3.7 5.6 8.2 10.8 12.2 16.2 4.1 5.6 8 11.4 12.3 16.9 3 3.7 6.8 7 10 10.5 3.7 3.9 7.4 7.8 10.6 12a79.4 79.4 0 0 1 14.1 39.3c0 .6.1 1.1.4 1.6 4.6 8.9-.2 14.6-6.5 20-1 .7-1 2.4-1.5 3.6-.8 2.1-1.3 4.6-2.6 6.3a31 31 0 0 0-5.5 17.9c-.3 4-1.5 7.9-2 11.8-.2.7-.1 1.3 0 2 .1 1-.6 3.4-1.5 5.5-3.5 7.6-5.9 16-13 21.1-1.9 1.4-2.4 2-1 1.8 1.5-.2 2.7-.2 2.7 0s-1.6.9-3.7 1.7l-1 .3c-2.1.8-2.8 1.7-1.6 2 1.2.4.4 1.3-1.7 2l-5.6 2c-2.1.7-3 1.8-2 2.3 1 .5.2 1.2-1.7 1.7s-3.3 1.4-3 2c.3.6-1.3 1.5-3.5 2-4 .8-8 1.6-12 2-1.3.1-2.7 0-4-.5-2.2-.6-5.7-1.6-8-1.6a335 335 0 0 0-44.7 6.2c-2.2.4-5.8 1-8 1.2l-9.7 1c-2.3.2-3.8.7-3.4 1 .3.4-1.1 1.2-3.3 2-9.8 3.2-19.8 6.5-29.9 10-2.1.6-3.3 1.5-2.5 2 .7.3-.4 1.3-2.6 2-5.6 2.1-11.3 3.8-15.8 7.1-4.8 3.6-10.1 6.5-14.9 10.3-5.3 4.3-12.8 6-19.3 8.8l-2 .9c-1.2.4-1.2 1.2-.1 1.8s.6 2-1.2 3.3l-11.8 8.7c-1.8 1.4-2.7 2.8-2 3.2.6.3-.4 1.5-2.4 2.6l-4 2.2c-2 1-3.4 2.1-3.3 2.4 0 .2 1.4.1 2.9-.1 1.5-.3 1.4.7-.2 2.3l-21.1 20.1-2.5 2.1c-1.3 1.1-1 1.7.9 1.1 1.8-.4 2.2.7 1 2.6-3.5 5.3-6.8 10.5-10.5 15.6-2.3 3.3-5.2 6.1-7.9 9.1v.5c0 .3.8.4 1.7.2s.5 1.2-.8 3l-6.7 9.2c-1.3 1.8-1 2.5.9 1.5 1.8-1 2.5 0 1.5 2-3.5 7.5-7.2 14-7.8 22-.2 3.8-2.3 7.6-4.3 11.8-1 2-.8 3.1.2 2.4 1-.7 1.4.6 1 2.8l-5.3 30.8c-.4 2.2 0 3.7.6 3.4s.8 1.2.2 3.4l-1.4 5c-.7 2.2-.5 3.8.3 3.5.8-.2.8 1.4.4 3.6-1 5.8-.4 12-4.6 16.7-1.5 1.7-2.2 2.6-1.2 2.6s1 1.5-.4 3.3l-1 1.5c-1.4 1.9-1.8 3.1-.9 2.8s1.7-.4 1.8-.3l.1.3v1.6c-1.1 9.7 2 17.3 11.3 21.5 6.8 3 11.7 10 20.5 9.1 2.7-.3 5.8 2.7 8.7 4.2l.5-.1c.3-.1.3-.6 0-1.2-.2-.6 1.4-.6 3.6-.2l4.8 1c2.2.5 3.7.3 3.3-.5-.3-.7 1-.7 3.2 0 18.5 6.1 37.3 3.6 56 4 2.2 0 3.8-.3 3.5-.7-.3-.4 1.3-.8 3.5-.8H186c3 0 6-.2 9-.6l19.8-3c7.2-1.3 14.5 1.6 22-2.8 4.3-2.5 8.3-4.5 9.8-7.8 1-2 2.4-4.4 4.6-5 4.1-1 8-1.8 11.7-3 5.3-1.6 9.9-3.5 11-10.5.8-5 .4-9.5-4-12.1-.5-.3-.8-.9-1-1.5-.2-1-2.1-1.8-4.4-2l-1.5-.2c-2.3-.1-3.1-1.9-2-3.8l2-3.2c1-1.9 2.3-3.3 2.6-3.1.4.1.7 1.6.8 3.3s1 1.3 2-.7l1.5-2.9c1-2 2-3.5 2.3-3.4.3 0 .7 1.5.9 3 .1 1.7 1 1.3 1.8-.8l.8-2c.8-2.1 1.6-2.3 1.8-.4.1 1.8.7 1.6 1.6-.5 1.9-4.1 4.8-7.2 9.3-9.1 6.3-2.7 12.4-6 18.7-8.6 1-.5 3.3.2 4.1 1.1 3 3.7 5.7 7.8 8.7 11.6 3 4 6.3 8 9.6 11.7l13 14.4.7 1c.3.4 1 .3 1.3-.3s1.5.5 2.4 2.6l1 2.2c1 2 1.8 2.6 2 1.2s1.4-1 2.7.8l10 14.4c1.2 2 2.2 2.3 2.2.8s1-1 2.3.8l5.6 8.3c1.3 1.8 2 2 1.8.1-.2-1.7 0-3.4.3-3.6.3-.3 1.7 1 3 2.8l2.3 3.1c1.3 1.8 2.8 2.9 3.2 2.2.5-.6.6-1 .6-1.2 0-.2-.2-.4-.1-.6l.2-.2c.1 0 1.7.9 3.6 2.2l3.8 2.8c1.8 1.3 3.2 1.5 3.1.5-.1-1 1.5-1.1 3.6-.2 1.8.8 3.5 1.5 5.2 1.7 4.5.7 9.4-.1 13.7 1.1 8.6 2.5 15.9-1.3 21.6-5.9 3.6-2.8 7-3.6 11-4 2.2-.2 5.3-1.5 7-3l6.7-6.4a5.9 5.9 0 0 0 1.1-6.5c-2.5-5-5.3-9.4-10.7-11-2.1-.7-3.1-1.4-2.1-2.2s0-1.6-2.2-1.6h-1.8c-2.3 0-4.1-.1-4.1-.3s.9-.5 2-.8c1-.3.3-1.3-1.7-2.2l-1.9-.9c-2-.9-2.9-1.9-1.9-2 1-.3.2-1.4-1.8-2.5l-11.3-6a17 17 0 0 0-2.7-1c-1.5-.5-1.7-1.2-.6-1.6 1.2-.3 1.1-1.1-.2-1.7-1.3-.6-1-1.3.5-1.6 1.5-.2 1-1-1-2l-5.2-2c-2-1-3-2.6-2-3.8.8-1 1.4-1.8 1.2-2.2-.4-1.3-1.1-2.4-2-3.6-1.2-1.9-1.5-3.4-.8-3.3.8 0 1.2-1 .8-2.1l-.5-2.2c-1-4.4-.9-9.2-2.8-13-2.6-5.4-2-9.5.9-13.2 1.4-1.8 3.1-2.4 3.5-1.8.4.6 1.4-.3 2.3-2 .8-1.6 1.7-2.5 2-1.9s1.6-.2 3-2l3.8-4.3c1.4-1.7 2.9-2.5 3.2-1.6.3.9 1.2-.2 2.2-2.2 5.1-10 13.7-18 15.7-29.6l.2-.1c.2 0 .8.4 1.4 1 .6.5 1.6-.8 2.2-3l10.4-35.8a28 28 0 0 1 3.6-7.2c6.6-9 8.3-15 8.5-18.6.1-2.2-2-5.2-3.2-7-2.4-3.8-1.9-7.8-2.2-11.8-.4-5.2.2-10.6.6-15.8.2-2.3.6-4 1-3.8.5.2.5-1.4.5-3.6.2-9.7 8.7-12.1 16-15.2 2.1-.8 5.3-2.2 7.3-2.8a9 9 0 0 0 3.4-1.7c2.6-2.2 4.5-5.2 6.6-8 2-2.4 4.3-4.3 6.9-6.2 4.4-3.3 7.6-8.2 11.5-12.1a83 83 0 0 1 10.4-9.3c4.8-3.4 5.8-9.9 2.5-15s-6.5-10.4-8.9-16z"/>
</svg>
